<svg xmlns="http://www.w3.org/2000/svg" width="46" height="48" fill="none"><path fill="#fff" fill-rule="evenodd" d="M18.81 1.084a6.75 6.75 0 0 1 8.69 6.464v32.904a6.75 6.75 0 0 1-8.69 6.464l-13.5-4.05A6.75 6.75 0 0 1 .5 36.402V11.598a6.75 6.75 0 0 1 4.81-6.464l13.5-4.05ZM29.75 6A2.25 2.25 0 0 1 32 3.75h6.75a6.75 6.75 0 0 1 6.75 6.75v2.25a2.25 2.25 0 0 1-4.5 0V10.5a2.25 2.25 0 0 0-2.25-2.25H32A2.25 2.25 0 0 1 29.75 6Zm13.5 27a2.25 2.25 0 0 1 2.25 2.25v2.25a6.75 6.75 0 0 1-6.75 6.75H32a2.25 2.25 0 0 1 0-4.5h6.75A2.25 2.25 0 0 0 41 37.5v-2.25A2.25 2.25 0 0 1 43.25 33Zm-27-11.25a2.25 2.25 0 1 0 0 4.5h.002a2.25 2.25 0 1 0 0-4.5h-.002Z" clip-rule="evenodd"/><path stroke="#fff" stroke-linecap="round" stroke-linejoin="round" stroke-width="4.167" d="m43.25 24-4.5 4.5M32 24h11.25H32Zm11.25 0-4.5-4.5 4.5 4.5Z"/></svg>